<?xml version="1.0" encoding="UTF-8" standalone="no"?><svg xmlns="http://www.w3.org/2000/svg" xmlns:xlink="http://www.w3.org/1999/xlink" contentScriptType="text/ecmascript" fill="#000000" width="198.4" zoomAndPan="magnify" contentStyleType="text/css" viewBox="113.4 113.4 198.4 198.4" height="198.4" preserveAspectRatio="xMidYMid meet" version="1"><g><g id="change1_1"><path fill="#03a8e8" d="M 311.8125 212.59375 C 311.8125 212.828125 311.8125 213.085938 311.796875 213.324219 C 311.765625 218.210938 311.382812 223.015625 310.648438 227.714844 C 307.195312 250.410156 296.054688 270.558594 279.964844 285.425781 L 279.949219 285.425781 C 262.25 301.800781 238.582031 311.8125 212.59375 311.8125 C 199.875 311.8125 187.714844 309.425781 176.558594 305.046875 C 175.175781 304.523438 173.804688 303.949219 172.449219 303.347656 C 153.574219 294.988281 137.816406 280.921875 127.328125 263.316406 C 122.0625 254.46875 118.113281 244.726562 115.789062 234.382812 C 114.214844 227.363281 113.386719 220.070312 113.386719 212.59375 C 113.386719 209.96875 113.484375 207.371094 113.707031 204.8125 C 115.378906 183.050781 124.085938 163.265625 137.550781 147.71875 C 142.734375 141.730469 148.625 136.367188 155.089844 131.769531 L 155.105469 131.753906 C 156.855469 130.515625 158.652344 129.304688 160.5 128.175781 C 171.769531 121.203125 184.53125 116.410156 198.203125 114.421875 C 202.898438 113.734375 207.707031 113.386719 212.59375 113.386719 C 224.242188 113.386719 235.445312 115.40625 245.824219 119.101562 C 262.601562 125.054688 277.273438 135.398438 288.511719 148.734375 C 303.0625 165.992188 311.8125 188.273438 311.8125 212.59375"/></g><g id="change2_1"><path fill="#70c573" d="M 225.847656 290.238281 C 225.847656 290.238281 220.445312 282.703125 221.046875 269.785156 C 221.644531 256.867188 220.445312 254.714844 212.046875 252.023438 C 203.648438 249.332031 195.246094 244.484375 194.046875 238.027344 C 192.847656 231.566406 200.046875 216.496094 200.046875 216.496094 C 200.046875 216.496094 209.648438 210.039062 218.046875 211.113281 C 226.445312 212.191406 240.847656 212.191406 247.445312 218.113281 C 254.046875 224.03125 258.242188 237.488281 261.242188 238.027344 C 264.242188 238.566406 257.042969 261.710938 255.84375 265.480469 C 254.644531 269.246094 251.046875 284.320312 248.046875 290.238281 C 245.046875 296.160156 242.046875 301.542969 239.644531 301.542969 C 237.246094 301.542969 226.445312 302.621094 225.847656 290.238281"/></g><g id="change2_2"><path fill="#70c573" d="M 179.230469 289.007812 C 178.707031 291.550781 177.769531 298.316406 176.558594 305.046875 C 175.175781 304.523438 173.804688 303.949219 172.449219 303.347656 C 153.574219 294.988281 137.816406 280.921875 127.328125 263.316406 C 122.0625 254.46875 118.113281 244.726562 115.789062 234.382812 C 119.449219 232.4375 124.035156 230.6875 128.539062 230.769531 C 138.40625 230.960938 139.648438 233.386719 148.050781 239.414062 C 156.4375 245.449219 163.011719 260.503906 166.5625 260.761719 C 170.109375 261 180.140625 284.484375 179.230469 289.007812"/></g><g id="change2_3"><path fill="#70c573" d="M 311.8125 212.59375 C 311.8125 212.828125 311.8125 213.085938 311.796875 213.324219 C 311.765625 218.210938 311.382812 223.015625 310.648438 227.714844 C 306.195312 221.171875 301.386719 211.351562 298.9375 209.632812 C 295.164062 206.972656 281.335938 205.382812 286.363281 212.289062 C 291.394531 219.214844 293.523438 219.214844 293.523438 219.214844 C 293.523438 219.214844 283.847656 238.695312 276.941406 236.804688 C 270.019531 234.925781 256.1875 209.632812 256.1875 209.632812 C 248.019531 203.203125 263.730469 198.460938 263.730469 198.460938 C 263.730469 198.460938 268.761719 194.066406 261.214844 189.035156 C 253.671875 184.007812 248.019531 194.6875 242.992188 193.429688 C 237.964844 192.171875 236.703125 197.199219 235.128906 202.230469 C 233.554688 207.257812 228.96875 210.269531 227.902344 202.230469 C 226.820312 194.191406 215.328125 199.097656 211.558594 199.097656 C 207.785156 199.097656 200.242188 212.289062 193.316406 212.289062 C 186.410156 212.289062 186.410156 202.867188 187.667969 198.460938 C 188.925781 194.066406 199.605469 189.65625 209.664062 189.035156 C 219.722656 188.402344 210.300781 179.597656 213.4375 177.894531 C 216.585938 176.175781 226.011719 178.976562 235.128906 182.75 C 244.234375 186.523438 253.671875 177.71875 261.851562 177.894531 C 270.019531 178.070312 244.25 171.433594 252.414062 165.144531 C 260.597656 158.859375 242.992188 153.195312 243.613281 146.285156 C 244.25 139.363281 238.582031 131.195312 238.582031 123.652344 C 238.582031 121.25 241.257812 119.6875 245.824219 119.101562 C 262.601562 125.054688 277.273438 135.398438 288.511719 148.734375 C 303.0625 165.992188 311.8125 188.273438 311.8125 212.59375"/></g><g id="change2_4"><path fill="#70c573" d="M 171.363281 179.054688 C 171.363281 179.054688 175.007812 183.359375 177.816406 179.054688 C 180.628906 174.746094 181.027344 171.3125 179.269531 171.003906 C 177.503906 170.6875 167.042969 177.261719 171.363281 179.054688"/></g><g id="change2_5"><path fill="#70c573" d="M 150.132812 179.054688 C 150.132812 179.054688 157.625 177.140625 159.289062 173.394531 C 160.957031 169.644531 170.53125 171.3125 173.027344 167.5625 C 175.527344 163.816406 181.992188 162.480469 183.550781 158.984375 C 185.101562 155.492188 186.792969 150.082031 180.328125 149.660156 C 173.863281 149.246094 167.488281 146.335938 167.554688 149.660156 C 167.617188 152.996094 165.953125 152.160156 160.125 154.242188 C 154.296875 156.324219 148.050781 153.320312 148.050781 158.984375 C 148.050781 164.652344 149.71875 170.988281 149.71875 170.988281 C 149.71875 170.988281 146.386719 175.558594 150.132812 179.054688"/></g><g id="change2_6"><path fill="#70c573" d="M 198.203125 114.421875 C 198.203125 114.421875 187.046875 129.320312 184.976562 129.71875 C 182.894531 130.113281 176.511719 134.488281 175.332031 138.871094 C 174.140625 143.25 165.78125 146.03125 159.417969 143.25 C 153.050781 140.460938 151.585938 137.390625 155.089844 131.769531 L 155.105469 131.753906 C 156.855469 130.515625 158.652344 129.304688 160.5 128.175781 C 171.769531 121.203125 184.53125 116.410156 198.203125 114.421875"/></g><g id="change2_7"><path fill="#70c573" d="M 135.671875 172.960938 C 134.617188 176.144531 134.875 179.855469 131.4375 180.964844 C 127.980469 182.082031 129.304688 186.21875 126.917969 191.519531 C 124.769531 196.296875 115.554688 203.425781 113.707031 204.8125 C 115.378906 183.050781 124.085938 163.265625 137.550781 147.71875 C 138.949219 151.96875 138.40625 158.984375 139.648438 161.277344 C 141.511719 164.730469 136.734375 169.777344 135.671875 172.960938"/></g></g></svg>